<svg version="1.1" xmlns="http://www.w3.org/2000/svg" xmlns:xlink="http://www.w3.org/1999/xlink" width="176.70889" height="129.69771" viewBox="0,0,176.70889,129.69771"><defs><radialGradient cx="240" cy="156.89375" r="42.60327" gradientUnits="userSpaceOnUse" id="color-1"><stop offset="0" stop-color="#ffee05"/><stop offset="1" stop-color="#ffee05" stop-opacity="0"/></radialGradient></defs><g transform="translate(-151.64556,-115.15114)"><g data-paper-data="{&quot;isPaintingLayer&quot;:true}" fill-rule="nonzero" stroke-linecap="butt" stroke-linejoin="miter" stroke-miterlimit="10" stroke-dasharray="" stroke-dashoffset="0" style="mix-blend-mode: normal"><path d="M151.64556,244.84886l18.19276,-93.83061l64.16679,30.4512l5.75647,56.57563z" fill="#c63232" stroke="none" stroke-width="0"/><path d="M157.64965,235.38619l14.16375,-76.2551c0,0 17.83008,-3.59414 25.4649,-0.74664c10.9955,4.1009 36.46678,27.12419 36.46678,27.12419l4.72125,47.47959z" fill="#ffea49" stroke="none" stroke-width="0"/><path d="M155.42789,224.83517l15.83007,-77.21429c0,0 18.94096,2.16096 26.57578,5.00846c10.9955,4.1009 35.91134,30.96093 35.91134,30.96093l5.27669,51.31633c0,0 -25.48306,-10.67676 -38.7677,-12.2773c-14.47733,-1.74423 -44.82619,2.20587 -44.82619,2.20587z" fill="#fff5a8" stroke="#ffc13a" stroke-width="3"/><path d="M166.53671,214.28415l16.38551,-79.13265c0,0 20.05184,1.20178 27.68667,4.04928c10.9955,4.1009 28.69061,43.43032 28.69061,43.43032l0.27772,51.31633c0,0 -24.37218,-19.30941 -37.65682,-20.90995c-14.47733,-1.74423 -35.38369,1.24668 -35.38369,1.24668z" fill="#fff9cd" stroke="#ffd16f" stroke-width="3"/><path d="M240.23842,237.56549l5.75647,-56.57563l64.16679,-30.4512l18.19276,93.83061z" data-paper-data="{&quot;index&quot;:null}" fill="#c63232" stroke="none" stroke-width="0"/><path d="M241.53367,232.50864l4.72125,-47.47959c0,0 25.47129,-23.0233 36.46678,-27.12419c7.63482,-2.84749 25.4649,0.74664 25.4649,0.74664l14.16375,76.2551z" data-paper-data="{&quot;index&quot;:null}" fill="#ffea49" stroke="none" stroke-width="0"/><path d="M279.74593,222.14971c-13.28464,1.60054 -38.7677,12.2773 -38.7677,12.2773l5.27669,-51.31633c0,0 24.91585,-26.86003 35.91134,-30.96093c7.63482,-2.8475 26.57578,-5.00846 26.57578,-5.00846l15.83007,77.21429c0,0 -30.34886,-3.9501 -44.82619,-2.20587z" data-paper-data="{&quot;index&quot;:null}" fill="#fff5a8" stroke="#ffc13a" stroke-width="3"/><path d="M278.07961,212.55788c-13.28464,1.60054 -37.65682,20.90995 -37.65682,20.90995l0.27772,-51.31633c0,0 17.69511,-39.32942 28.69061,-43.43032c7.63482,-2.8475 27.68667,-4.04928 27.68667,-4.04928l16.38551,79.13265c0,0 -20.90636,-2.99092 -35.38369,-1.24668z" data-paper-data="{&quot;index&quot;:null}" fill="#fff9cd" stroke="#ffd16f" stroke-width="3"/><path d="M282.60327,156.89375c0,23.0538 -19.07414,41.7426 -42.60327,41.7426c-23.52914,0 -42.60327,-18.6888 -42.60327,-41.7426c0,-23.0538 19.07414,-41.7426 42.60327,-41.7426c23.52914,0 42.60327,18.6888 42.60327,41.7426z" fill="url(#color-1)" stroke="none" stroke-width="0"/></g></g></svg>